<svg xmlns="http://www.w3.org/2000/svg" width="97" height="32.334" viewBox="0 0 97 32.334">
  <g id="surface1" transform="translate(0 -0.492)">
    <path id="Path_1041" data-name="Path 1041" d="M90.534,10.192H83.5L80.7,3.812a1.618,1.618,0,0,0-.093-.181A6.5,6.5,0,0,0,75.058.492H29.307a6.5,6.5,0,0,0-5.04,2.425l-6.4,8.967L4.317,13.118A4.85,4.85,0,0,0,0,17.936v8.423a1.617,1.617,0,0,0,1.617,1.617H8.29a6.48,6.48,0,0,0,6.26,4.85c.136,0,.274,0,.412-.013a6.446,6.446,0,0,0,5.8-4.837H71.34a6.481,6.481,0,0,0,6.26,4.85c.135,0,.273,0,.412-.013a6.446,6.446,0,0,0,5.8-4.837H95.384A1.617,1.617,0,0,0,97,26.359v-9.7A6.466,6.466,0,0,0,90.534,10.192ZM68.089,3.725h6.969a3.246,3.246,0,0,1,2.723,1.493l2.748,6.229-.365.362H68.016Zm-30.717,0H64.856l-.073,8.084H37.3Zm-.1,11.317H64.754l-.03,3.233H37.241ZM26.819,4.89A3.235,3.235,0,0,1,29.3,3.725h4.836l-.072,8.084H21.883ZM17.761,26.359a3.217,3.217,0,0,1-5.348,2.425A3.183,3.183,0,0,1,11.326,26.6c0-.039.011-.207.011-.245a3.224,3.224,0,0,1,6.436-.262c0,.043-.013.22-.013.262Zm3.051-1.617-.013-.037c-.032-.126-.089-.241-.13-.364a6.461,6.461,0,0,0-.286-.756c-.071-.149-.161-.285-.242-.427a6.44,6.44,0,0,0-.367-.587c-.1-.136-.205-.259-.314-.386-.151-.175-.3-.343-.469-.5-.118-.11-.238-.214-.362-.324a6.548,6.548,0,0,0-.584-.424c-.126-.081-.249-.162-.38-.231a6.1,6.1,0,0,0-.718-.333c-.121-.051-.238-.1-.362-.146a6.522,6.522,0,0,0-.888-.216c-.1-.018-.194-.047-.294-.061a6.633,6.633,0,0,0-1.262-.052A6.344,6.344,0,0,0,13,20.081c-.12.031-.233.074-.349.112a6.436,6.436,0,0,0-.721.265c-.126.058-.247.121-.368.185a6.117,6.117,0,0,0-.616.372,3.738,3.738,0,0,0-.324.236,6.318,6.318,0,0,0-.57.508c-.083.081-.162.162-.244.241a6.523,6.523,0,0,0-.668.859l-.012.014a6.638,6.638,0,0,0-.516,1c-.04.1-.068.2-.1.3-.066.184-.142.364-.191.555H3.234V21.509H6.467V18.276H3.233v-.34a1.617,1.617,0,0,1,1.406-1.6l14.114-1.29H34.046l-.03,3.233H22.633v3.233H33.979l-.029,3.219,1.617.014Zm16.372,0,.029-3.233H64.7l-.029,3.219,1.617.014Zm43.627,1.617a3.222,3.222,0,0,1-6.435.244c0-.039.012-.207.012-.245a3.223,3.223,0,0,1,6.435-.262c0,.043-.012.22-.012.262Zm12.956-1.617H83.861l-.012-.038c-.033-.117-.083-.225-.122-.34a6.367,6.367,0,0,0-.3-.785c-.066-.137-.149-.265-.225-.4a6.159,6.159,0,0,0-.388-.62c-.092-.124-.191-.239-.291-.357a6.2,6.2,0,0,0-.5-.533c-.106-.1-.215-.2-.324-.289a6.733,6.733,0,0,0-.62-.449c-.115-.073-.228-.145-.346-.212a6.6,6.6,0,0,0-.752-.349c-.112-.045-.22-.1-.336-.132a6.237,6.237,0,0,0-.907-.223c-.094-.017-.183-.045-.278-.059a6.688,6.688,0,0,0-1.262-.052,6.4,6.4,0,0,0-1.143.184c-.119.031-.232.075-.349.112a6.515,6.515,0,0,0-.721.265c-.126.058-.248.121-.369.186a6.079,6.079,0,0,0-.616.372,3.856,3.856,0,0,0-.324.236,6.449,6.449,0,0,0-.57.508c-.083.081-.162.162-.244.241a6.58,6.58,0,0,0-.668.858l-.012.014a6.615,6.615,0,0,0-.515,1c-.041.1-.068.2-.1.3-.066.184-.142.364-.191.555H67.9l.03-3.233h3.2V18.276H67.958l.029-3.233H80.833a1.617,1.617,0,0,0,1.143-.474l1.143-1.143H87.3v4.85a1.616,1.616,0,0,0,1.616,1.616h4.85Zm-3.233-8.083V13.426a3.234,3.234,0,0,1,3.233,3.233Zm0,0" fill="#fff"/>
  </g>
</svg>
