<svg xmlns="http://www.w3.org/2000/svg" width="67.049" height="44" viewBox="0 0 67.049 44">
  <path id="Path_1042" data-name="Path 1042" d="M60.762,88H9.648a6.251,6.251,0,0,0-6.136,4.922C-.146,109.385.031,108.562.013,108.733S0,108.151,0,120.48a5.244,5.244,0,0,0,5.238,5.238H8.647a8.382,8.382,0,0,0,16.232,0H45.313a8.382,8.382,0,0,0,16.232,0h.265a5.244,5.244,0,0,0,5.238-5.238V94.29A6.293,6.293,0,0,0,60.762,88Zm2.1,6.286v8.381H55.524V92.194h5.238A2.1,2.1,0,0,1,62.858,94.29ZM44,102.671V92.194h7.333v10.476Zm-11.524,0V92.194H39.81v10.476Zm-11.524,0V92.194h7.333v10.476ZM7.6,93.836a2.084,2.084,0,0,1,2.046-1.642h7.115v11.45l-4.825,3.217H4.708Zm9.16,33.977a4.19,4.19,0,1,1,4.19-4.19A4.2,4.2,0,0,1,16.762,127.813Zm36.667,0a4.19,4.19,0,1,1,4.19-4.19A4.2,4.2,0,0,1,53.429,127.813Zm8.381-6.286h-.265a8.382,8.382,0,0,0-16.232,0H24.878a8.382,8.382,0,0,0-16.232,0H5.239a1.049,1.049,0,0,1-1.048-1.048v-2.1H5.239a2.1,2.1,0,1,0,0-4.19H4.191v-3.143h8.381a2.1,2.1,0,0,0,1.162-.352l5.758-3.839H62.858V120.48A1.049,1.049,0,0,1,61.81,121.528Z" transform="translate(0.001 -88.004)" fill="#fff"/>
</svg>
