<svg xmlns="http://www.w3.org/2000/svg" width="69.789" height="65.972" viewBox="0 0 69.789 65.972">
  <path id="Path_1032" data-name="Path 1032" d="M3.7,33.625H15.538a3.709,3.709,0,0,1,3.7,3.706V50.952h4.427a10.169,10.169,0,0,1-.277-3.177h0a29.711,29.711,0,0,1,2.8-13,13.943,13.943,0,0,1,4.332-5.222,9.48,9.48,0,0,1-2.536-6.713,8.674,8.674,0,1,1,17.345,0,1.022,1.022,0,0,1-1.022,1.022h-.695a7.2,7.2,0,0,1,.1,1.178A7.1,7.1,0,0,1,38.009,32a17.23,17.23,0,0,1,.509,4.447l2.55,2.193,6.2.5,7.156-2.366a2.167,2.167,0,0,1,2.044,0,1.816,1.816,0,0,1,.636,1.525v5.321a1.022,1.022,0,0,1-1.022,1.022H54.868l1.867,6.451a1.022,1.022,0,0,1-1.964.568l-2.031-7.019H49.833c3.615,11.023,1.552,18.381-1.618,25.828h1.838l7.654-8.558-1.618-5.591a1.022,1.022,0,0,1,1.964-.568L59.6,61.1a10.283,10.283,0,0,1,10.162,7.971A1.022,1.022,0,0,1,69,70.3l-1.451.334a7.822,7.822,0,0,1-15.116,3.479l-1.145.263a1.335,1.335,0,0,1-.988-.055,1.174,1.174,0,0,1-.576-.784,10.171,10.171,0,0,1-.165-1.018H28.173a8.711,8.711,0,0,1-17.241,0h-.78l-.19,0A1.4,1.4,0,0,1,8.9,72.133a1.31,1.31,0,0,1-.361-.994,11.589,11.589,0,0,1,.419-2.769c-.814-4.944-.031-7.954,1.131-10.311a2.691,2.691,0,0,1-1.221-2.253V53H3.7A3.709,3.709,0,0,1,0,49.291V37.33A3.709,3.709,0,0,1,3.7,33.625ZM56.692,76.279a5.734,5.734,0,0,0,4.36.735h0A5.793,5.793,0,0,0,65.531,71.1L54.442,73.649A5.747,5.747,0,0,0,56.692,76.279Zm-5.115-4.071,15.9-3.659a8.233,8.233,0,0,0-8.139-5.394l-7.79,8.71Q51.56,72.038,51.577,72.209ZM36.135,54.394a9.1,9.1,0,0,1,.3,3.083v3.858h3.743V56.042c0-5.984-3.266-7.05-4.731-7.226H25.422a4.334,4.334,0,0,0,.929,2.936c.678.714,1.838,1.062,3.547,1.063l3.67,0a2.463,2.463,0,0,1,2.569,1.574Zm.3,8.985V65.82h7.29a2.913,2.913,0,0,0-.7-1.748,2.522,2.522,0,0,0-1.82-.693ZM25.467,46.772h9.3a38.171,38.171,0,0,0,.98-3.783l-2.827-1.835a4.219,4.219,0,0,1-2.2-3.885,3.614,3.614,0,0,1,2.252-2.959,3.69,3.69,0,0,1,3.431.378A12.07,12.07,0,0,0,35.9,32.1a7.206,7.206,0,0,1-1.294-.255,8.469,8.469,0,0,1-2.386-.946C30.255,32.072,25.925,35.888,25.467,46.772ZM43.211,21.823A6.619,6.619,0,0,0,30.03,22.845a6.942,6.942,0,0,0,3.821,6.589V24.055A2.034,2.034,0,0,1,35.9,21.827q.046,0,.093,0Zm-1.544,3.223a5.091,5.091,0,0,0-.136-1.178H36.047c-.063.007-.109.014-.142.021a1.215,1.215,0,0,0-.01.167v5.981a5.057,5.057,0,0,0,.734.054h.007a5.046,5.046,0,0,0,5.031-5.045Zm1.325,15.8-2.421-.2a1.023,1.023,0,0,1-.585-.244l-4.37-3.759h0A2.031,2.031,0,0,0,34.3,36.1a1.574,1.574,0,0,0-1.553,1.372,2.255,2.255,0,0,0,1.281,1.971L38.9,42.6h4.092V40.846Zm4.32.349-2.276-.184V42.6h2.644c.343,0,.426-.285.436-.524A.812.812,0,0,0,47.313,41.2Zm2.42-.706a2.953,2.953,0,0,1,.377,2.1s0,.006,0,.008h4.953V38.719l-5.334,1.763Zm-2.057,4.154H38.6a1.022,1.022,0,0,1-.557-.165l-.463-.3c-.223.984-.476,1.941-.752,2.846,2.085.615,5.394,2.6,5.394,9.018v5.4A4.267,4.267,0,0,1,44.5,62.659a4.986,4.986,0,0,1,1.278,3.161h2.062c2.078-5.989,2.868-12.362-.16-21.176ZM45.991,70.469c.378-.869.742-1.735,1.085-2.6H36.461c-1.376,0-2.073-.626-2.073-1.861V58.5H26.318a1.022,1.022,0,0,1,0-2.045H34.38a4.628,4.628,0,0,0-.157-1.336c-.052-.136-.1-.254-.658-.254l-3.67,0c-2.3,0-3.943-.558-5.028-1.7-.05-.053-.1-.108-.145-.164H10.912v2.81a.656.656,0,0,0,.647.648H21.736a1.022,1.022,0,1,1,0,2.045H12.159a12.07,12.07,0,0,0-1.492,6.314,11.094,11.094,0,0,1,16.9-1.32,11.262,11.262,0,0,1,3.214,6.978ZM19.553,77.928A6.736,6.736,0,0,0,26.1,72.517H13.01a6.737,6.737,0,0,0,6.543,5.411Zm-7.7-7.455H28.726a9.17,9.17,0,0,0-9.046-8.23,9.071,9.071,0,0,0-8.7,6.5l-.011.036a9.436,9.436,0,0,0-.337,1.694Zm-9.8-21.181A1.662,1.662,0,0,0,3.7,50.952H17.2V45.673H2.044Zm0-5.663H17.2V41.454H2.044Zm0-4.219H17.2V37.331a1.662,1.662,0,0,0-1.659-1.661H3.7a1.662,1.662,0,0,0-1.659,1.661Z" transform="translate(0 -14)" fill="#fff"/>
</svg>
